<mxfile host="app.diagrams.net" modified="2024-05-20T09:38:36.281Z" agent="Mozilla/5.0 (Windows NT 10.0; Win64; x64) AppleWebKit/537.36 (KHTML, like Gecko) Chrome/109.0.0.0 Safari/537.36 SLBrowser/9.0.3.4111 SLBChan/128" etag="vTcTt1xFvQOyDNbMRJA2" version="24.4.4" type="github">
  <diagram name="第 1 页" id="-uMj1Y23hwTrTH6uqjyR">
    <mxGraphModel dx="436" dy="235" grid="0" gridSize="10" guides="1" tooltips="1" connect="1" arrows="1" fold="1" page="1" pageScale="1" pageWidth="1169" pageHeight="827" math="0" shadow="0">
      <root>
        <mxCell id="0" />
        <mxCell id="1" parent="0" />
        <mxCell id="E52h9aYqVbazmC71CHxK-8" value="" style="rounded=0;whiteSpace=wrap;html=1;" vertex="1" parent="1">
          <mxGeometry x="224" y="171" width="446" height="278" as="geometry" />
        </mxCell>
        <mxCell id="E52h9aYqVbazmC71CHxK-9" value="&lt;font face=&quot;宋体&quot; style=&quot;font-size: 17px;&quot;&gt;客户端&lt;/font&gt;" style="rounded=1;whiteSpace=wrap;html=1;" vertex="1" parent="1">
          <mxGeometry x="344.5" y="62" width="205" height="58" as="geometry" />
        </mxCell>
        <mxCell id="E52h9aYqVbazmC71CHxK-10" value="&lt;font style=&quot;font-size: 17px;&quot; face=&quot;宋体&quot;&gt;连接/线程处理&lt;/font&gt;" style="rounded=0;whiteSpace=wrap;html=1;" vertex="1" parent="1">
          <mxGeometry x="315" y="196" width="264" height="54" as="geometry" />
        </mxCell>
        <mxCell id="E52h9aYqVbazmC71CHxK-11" value="" style="endArrow=classic;html=1;rounded=0;exitX=0.25;exitY=1;exitDx=0;exitDy=0;entryX=0.385;entryY=0;entryDx=0;entryDy=0;entryPerimeter=0;" edge="1" parent="1" source="E52h9aYqVbazmC71CHxK-9" target="E52h9aYqVbazmC71CHxK-8">
          <mxGeometry width="50" height="50" relative="1" as="geometry">
            <mxPoint x="338" y="358" as="sourcePoint" />
            <mxPoint x="394" y="172" as="targetPoint" />
          </mxGeometry>
        </mxCell>
        <mxCell id="E52h9aYqVbazmC71CHxK-12" value="" style="endArrow=classic;html=1;rounded=0;exitX=0.25;exitY=1;exitDx=0;exitDy=0;entryX=0.385;entryY=0;entryDx=0;entryDy=0;entryPerimeter=0;" edge="1" parent="1">
          <mxGeometry width="50" height="50" relative="1" as="geometry">
            <mxPoint x="446.74" y="120" as="sourcePoint" />
            <mxPoint x="446.74" y="171" as="targetPoint" />
          </mxGeometry>
        </mxCell>
        <mxCell id="E52h9aYqVbazmC71CHxK-13" value="" style="endArrow=classic;html=1;rounded=0;exitX=0.25;exitY=1;exitDx=0;exitDy=0;entryX=0.385;entryY=0;entryDx=0;entryDy=0;entryPerimeter=0;" edge="1" parent="1">
          <mxGeometry width="50" height="50" relative="1" as="geometry">
            <mxPoint x="496" y="120" as="sourcePoint" />
            <mxPoint x="496" y="171" as="targetPoint" />
          </mxGeometry>
        </mxCell>
        <mxCell id="E52h9aYqVbazmC71CHxK-15" value="&lt;font face=&quot;宋体&quot; style=&quot;font-size: 17px;&quot;&gt;查询缓存&lt;/font&gt;" style="rounded=1;whiteSpace=wrap;html=1;" vertex="1" parent="1">
          <mxGeometry x="315" y="284" width="98" height="52" as="geometry" />
        </mxCell>
        <mxCell id="E52h9aYqVbazmC71CHxK-18" value="&lt;font style=&quot;font-size: 17px;&quot; face=&quot;宋体&quot;&gt;解析器&lt;/font&gt;" style="rounded=1;whiteSpace=wrap;html=1;" vertex="1" parent="1">
          <mxGeometry x="479" y="282" width="100" height="54" as="geometry" />
        </mxCell>
        <mxCell id="E52h9aYqVbazmC71CHxK-19" value="" style="endArrow=classic;html=1;rounded=0;exitX=0.25;exitY=1;exitDx=0;exitDy=0;entryX=0.5;entryY=0;entryDx=0;entryDy=0;" edge="1" parent="1" target="E52h9aYqVbazmC71CHxK-18">
          <mxGeometry width="50" height="50" relative="1" as="geometry">
            <mxPoint x="528.57" y="250" as="sourcePoint" />
            <mxPoint x="529" y="281" as="targetPoint" />
          </mxGeometry>
        </mxCell>
        <mxCell id="E52h9aYqVbazmC71CHxK-20" value="" style="endArrow=classic;html=1;rounded=0;exitX=0.189;exitY=0.995;exitDx=0;exitDy=0;entryX=0.5;entryY=0;entryDx=0;entryDy=0;exitPerimeter=0;" edge="1" parent="1" source="E52h9aYqVbazmC71CHxK-10" target="E52h9aYqVbazmC71CHxK-15">
          <mxGeometry width="50" height="50" relative="1" as="geometry">
            <mxPoint x="363.7" y="250" as="sourcePoint" />
            <mxPoint x="363.7" y="301" as="targetPoint" />
          </mxGeometry>
        </mxCell>
        <mxCell id="E52h9aYqVbazmC71CHxK-21" value="" style="endArrow=classic;html=1;rounded=0;exitX=0;exitY=0.5;exitDx=0;exitDy=0;entryX=1;entryY=0.5;entryDx=0;entryDy=0;" edge="1" parent="1" source="E52h9aYqVbazmC71CHxK-18" target="E52h9aYqVbazmC71CHxK-15">
          <mxGeometry width="50" height="50" relative="1" as="geometry">
            <mxPoint x="478" y="328.49999999999994" as="sourcePoint" />
            <mxPoint x="413" y="329.5" as="targetPoint" />
          </mxGeometry>
        </mxCell>
        <mxCell id="E52h9aYqVbazmC71CHxK-23" value="&lt;font style=&quot;font-size: 17px;&quot; face=&quot;宋体&quot;&gt;优化器&lt;/font&gt;" style="rounded=0;whiteSpace=wrap;html=1;" vertex="1" parent="1">
          <mxGeometry x="248" y="374" width="407" height="60" as="geometry" />
        </mxCell>
        <mxCell id="E52h9aYqVbazmC71CHxK-24" value="" style="endArrow=classic;html=1;rounded=0;entryX=0.692;entryY=0.019;entryDx=0;entryDy=0;entryPerimeter=0;exitX=0.5;exitY=1;exitDx=0;exitDy=0;" edge="1" parent="1" source="E52h9aYqVbazmC71CHxK-18" target="E52h9aYqVbazmC71CHxK-23">
          <mxGeometry width="50" height="50" relative="1" as="geometry">
            <mxPoint x="350" y="390" as="sourcePoint" />
            <mxPoint x="400" y="340" as="targetPoint" />
          </mxGeometry>
        </mxCell>
        <mxCell id="E52h9aYqVbazmC71CHxK-26" value="&lt;div style=&quot;text-align: justify;&quot;&gt;&lt;span style=&quot;background-color: initial;&quot;&gt;&lt;font face=&quot;宋体&quot; style=&quot;font-size: 17px;&quot;&gt;存储引擎&lt;/font&gt;&lt;/span&gt;&lt;/div&gt;" style="rounded=0;whiteSpace=wrap;html=1;" vertex="1" parent="1">
          <mxGeometry x="224.5" y="482" width="447.5" height="60" as="geometry" />
        </mxCell>
        <mxCell id="E52h9aYqVbazmC71CHxK-27" value="" style="endArrow=classic;html=1;rounded=0;exitX=0.25;exitY=1;exitDx=0;exitDy=0;entryX=0.385;entryY=0;entryDx=0;entryDy=0;entryPerimeter=0;" edge="1" parent="1">
          <mxGeometry width="50" height="50" relative="1" as="geometry">
            <mxPoint x="350" y="120" as="sourcePoint" />
            <mxPoint x="350" y="171" as="targetPoint" />
          </mxGeometry>
        </mxCell>
        <mxCell id="E52h9aYqVbazmC71CHxK-28" value="" style="endArrow=classic;html=1;rounded=0;exitX=0.25;exitY=1;exitDx=0;exitDy=0;entryX=0.385;entryY=0;entryDx=0;entryDy=0;entryPerimeter=0;" edge="1" parent="1">
          <mxGeometry width="50" height="50" relative="1" as="geometry">
            <mxPoint x="544" y="120" as="sourcePoint" />
            <mxPoint x="544" y="171" as="targetPoint" />
          </mxGeometry>
        </mxCell>
      </root>
    </mxGraphModel>
  </diagram>
</mxfile>
